Coordinates
version=1
nRows=4
nColumns=107
inDegrees=yes

Units are S.I. units (second, meters, Newtons, ...)
If the header above contains a line with 'inDegrees', this indicates whether rotational values are in degrees (yes) or radians (no).

endheader
time	sternoclavicular_r2	sternoclavicular_r3	unrotscap_r3	unrotscap_r2	acromioclavicular_r2	acromioclavicular_r3	acromioclavicular_r1	unrothum_r1	unrothum_r3	unrothum_r2	elv_angle	shoulder_elv	shoulder1_r2	shoulder_rot	elbow_flexion	pro_sup	deviation	flexion	proximal_distal_r1	proximal_distal_r3	cmc_flexion	cmc_abduction	mp_flexion	ip_flexion	mcp2_flexion	mcp2_abduction	pm2_flexion	md2_flexion	mcp3_flexion	mcp3_abduction	pm3_flexion	md3_flexion	mcp4_flexion	mcp4_abduction	pm4_flexion	md4_flexion	mcp5_flexion	mcp5_abduction	pm5_flexion	md5_flexion	bicpt_tx	bicpt_ty	bicpt_tz	bicpt2_tx	bicpt2_ty	bicpt2_tz	ptpt_tx	ptpt_ty	ptpt_tz	FCUpt_tx	FCUpt_ty	FCUpt_tz	EDCpt_tx	EDCpt_ty	EDCpt_tz	APLpt_tx	APLpt_ty	APLpt_tz	FPLpt_tx	FPLpt_ty	FPLpt_tz	FPLpt2_tx	FPLpt2_ty	FPLpt2_tz	PEC1pt2_tx	PEC1pt2_ty	PEC1pt2_tz	PEC1pt3_tx	PEC1pt3_ty	PEC1pt3_tz	PEC2pt2_tx	PEC2pt2_ty	PEC2pt2_tz	PEC2pt3_tx	PEC2pt3_ty	PEC2pt3_tz	PEC3pt2_tx	PEC3pt2_ty	PEC3pt2_tz	PEC3pt3_tx	PEC3pt3_ty	PEC3pt3_tz	DELT2pt2a_tx	DELT2pt2a_ty	DELT2pt2a_tz	DELT2pt2_tx	DELT2pt2_ty	DELT2pt2_tz	LAT1pt2_tx	LAT1pt2_ty	LAT1pt2_tz	LAT1pt3_tx	LAT1pt3_ty	LAT1pt3_tz	LAT2pt2_tx	LAT2pt2_ty	LAT2pt2_tz	LAT2pt3_tx	LAT2pt3_ty	LAT2pt3_tz	LAT3pt2_tx	LAT3pt2_ty	LAT3pt2_tz	LAT3pt3_tx	LAT3pt3_ty	LAT3pt3_tz
      0.96666667	     -0.31450784	      0.13321068	     -0.13321068	      0.31450784	     -0.06368144	      0.51465099	      0.23133208	     -0.23133208	     -0.51465099	      0.06368144	    101.48293789	     74.46252623	     -1.77121140	    -36.99515626	     31.32537398	     87.60976571	      0.37921853	     -0.22428403	      0.39694621	     -0.11214201	     40.34419884	    -17.78990306	     10.12648168	      0.76370655	     62.61922359	      7.92267276	     71.33681879	     58.51023733	     67.51242047	     -3.10987671	     79.53004566	     50.74032009	     57.85151027	    -12.11017431	     91.68217079	     40.24184977	     55.80357086	    -14.00928424	     82.95192328	      5.56658698	      0.00093615	     -0.03119037	     -0.00487831	      0.01407055	     -0.01870969	     -0.00079856	      0.00107663	     -0.06908579	     -0.00710744	      0.01292332	     -0.18218285	      0.00012911	     -0.01051315	      0.00366675	     -0.00080961	      0.00018735	      0.00007494	      0.00037470	      0.00023981	      0.00071942	      0.00040467	     -0.00001004	     -0.00010436	     -0.00012523	      0.00244072	      0.00856320	      0.00595701	     -0.00798404	      0.01927754	     -0.01828470	      0.00244072	      0.00856320	      0.00595701	      0.00053779	      0.01787102	     -0.00939056	      0.00388289	      0.00476189	      0.01580642	      0.00000000	      0.00741297	      0.00000000	     -0.00699121	     -0.03230849	     -0.00611020	      0.02165180	     -0.00100221	     -0.01118155	     -0.00086873	      0.01456157	     -0.00595701	      0.00239935	      0.02101500	     -0.01737460	     -0.00583290	      0.01261727	     -0.00533649	     -0.01216222	      0.02664106	     -0.02982640	     -0.02283519	      0.01410652	     -0.00715668	     -0.01514073	      0.03077787	     -0.03727266
      1.00000000	     -0.31451988	      0.13321578	     -0.13321578	      0.31451988	     -0.06368388	      0.51467070	      0.23134094	     -0.23134094	     -0.51467070	      0.06368388	    101.48804260	     74.46537685	     -1.77130049	    -36.94021180	     31.35871064	     87.80999566	      0.37825227	     -0.19734422	      0.39623417	     -0.09867211	     40.15189852	    -17.79931459	      9.33326017	      1.10699721	     56.79174670	      8.26803641	     68.56883359	     45.31486917	     61.59670226	     -2.95360880	     77.15258382	     45.52412263	     53.32562673	    -12.12865656	     85.99135540	     40.49280753	     51.36570501	    -14.04547559	     77.69338435	      5.54984147	      0.00093725	     -0.03119419	     -0.00487893	      0.01404906	     -0.01871875	     -0.00076378	      0.00106183	     -0.06909536	     -0.00712357	      0.01294643	     -0.18217598	      0.00013488	     -0.01053717	      0.00367785	     -0.00081622	      0.00016932	      0.00006773	      0.00033864	      0.00021673	      0.00065019	      0.00036573	     -0.00001029	     -0.00010815	     -0.00012977	      0.00244081	      0.00856353	      0.00595724	     -0.00798435	      0.01927827	     -0.01828540	      0.00244081	      0.00856353	      0.00595724	      0.00053781	      0.01787171	     -0.00939092	      0.00388299	      0.00476207	      0.01580669	      0.00000000	      0.00741354	      0.00000000	     -0.00699148	     -0.03230973	     -0.00611067	      0.02163259	     -0.00100024	     -0.01115061	     -0.00086876	      0.01456213	     -0.00595724	      0.00239944	      0.02101580	     -0.01737527	     -0.00583313	      0.01261776	     -0.00533669	     -0.01216269	      0.02664208	     -0.02982755	     -0.02283607	      0.01410706	     -0.00715696	     -0.01514131	      0.03077905	     -0.03727409
      1.03333333	     -0.31424977	      0.13310137	     -0.13310137	      0.31424977	     -0.06362919	      0.51422870	      0.23114226	     -0.23114226	     -0.51422870	      0.06362919	    101.47994638	     74.40142677	     -1.77115919	    -36.93337714	     31.52020152	     87.99579948	      0.38341578	     -0.15327905	      0.40002240	     -0.07663952	     39.72770329	    -17.63523119	      9.10751371	      0.79379801	     52.11883556	      7.83460799	     60.99791245	     41.69508447	     55.73863000	     -2.84383943	     72.43945201	     44.19617644	     48.38241666	    -12.04030619	     80.20819564	     38.62041214	     46.24081991	    -14.06663315	     71.19136518	      5.47187104	      0.00094259	     -0.03121270	     -0.00488191	      0.01402905	     -0.01876262	     -0.00073147	      0.00104810	     -0.06910423	     -0.00713853	      0.01296789	     -0.18216958	      0.00014027	     -0.01055947	      0.00368815	     -0.00082238	      0.00013721	      0.00005489	      0.00027443	      0.00017563	      0.00052690	      0.00029638	     -0.00001080	     -0.00011639	     -0.00013967	      0.00243872	      0.00855617	      0.00595212	     -0.00797749	      0.01926172	     -0.01826970	      0.00243872	      0.00855617	      0.00595212	      0.00053734	      0.01785636	     -0.00938285	      0.00388053	      0.00475798	      0.01580051	      0.00000000	      0.00740073	      0.00000000	     -0.00698547	     -0.03228198	     -0.00610003	      0.02163008	     -0.00100000	     -0.01114685	     -0.00086802	      0.01454962	     -0.00595212	      0.00239738	      0.02099775	     -0.01736035	     -0.00582812	      0.01260692	     -0.00533211	     -0.01215224	      0.02661920	     -0.02980193	     -0.02281646	      0.01409495	     -0.00715081	     -0.01512830	      0.03075262	     -0.03724208
      1.06666667	     -0.31395660	      0.13297720	     -0.13297720	      0.31395660	     -0.06356983	      0.51374897	      0.23092662	     -0.23092662	     -0.51374897	      0.06356983	    101.49173313	     74.33201569	     -1.77136491	    -37.02432058	     31.66870380	     88.14538682	      0.38657508	     -0.11066687	      0.40231893	     -0.05533344	     39.16404921	    -17.22718484	      8.68646781	      0.68746516	     47.66546325	      7.32225113	     53.59317931	     36.75889627	     50.20923987	     -2.93667346	     66.97028625	     42.02729526	     43.43469100	    -12.00908850	     73.59976112	     36.43341668	     41.33206682	    -14.09061247	     63.79425628	      5.39929142	      0.00094750	     -0.03122972	     -0.00488465	      0.01401288	     -0.01880296	     -0.00070542	      0.00103705	     -0.06911138	     -0.00715058	      0.01298517	     -0.18216443	      0.00014462	     -0.01057742	      0.00369645	     -0.00082735	      0.00010298	      0.00004119	      0.00020596	      0.00013182	      0.00039545	      0.00022244	     -0.00001138	     -0.00012698	     -0.00015237	      0.00243644	      0.00854819	      0.00594657	     -0.00797005	      0.01924375	     -0.01825265	      0.00243644	      0.00854819	      0.00594657	      0.00053684	      0.01783970	     -0.00937410	      0.00387786	      0.00475354	      0.01579378	      0.00000000	      0.00738684	      0.00000000	     -0.00697896	     -0.03225186	     -0.00608849	      0.02166191	     -0.00100326	     -0.01119804	     -0.00086721	      0.01453605	     -0.00594657	      0.00239514	      0.02097816	     -0.01734415	     -0.00582268	      0.01259516	     -0.00532713	     -0.01214091	      0.02659437	     -0.02977413	     -0.02279517	      0.01408180	     -0.00714414	     -0.01511419	      0.03072393	     -0.03720733
